PathFileType	4	(X/Y/Z)	./resultDataOpenSim/trcMotMarkerGrf/sub09/qtm-02-08.trc
DataRate	CameraRate	NumFrames	NumMarkers	Units	OrigDataRate	OrigDataStartFrame	OrigNumFrames
250.000000	250.000000	14	24	m	250.000000	123	489
Frame#	Time	L.Toe.Tip			R.Toe.Tip			L.Ankle.Lat			R.Ankle.Lat			L.Ankle.Med			R.Ankle.Med			L.Heel			R.Heel			L.Knee.Lat			R.Knee.Lat			L.Knee.Med			R.Knee.Med			L.Thigh.Upper			R.Thigh.Upper			L.ASIS			R.ASIS			V.Sacral			L.Acromium			R.Acromium			C7			L.Elbow			R.Elbow			L.Wrist.Lat			R.Wrist.Lat
		X1	Y1	Z1	X2	Y2	Z2	X3	Y3	Z3	X4	Y4	Z4	X5	Y5	Z5	X6	Y6	Z6	X7	Y7	Z7	X8	Y8	Z8	X9	Y9	Z9	X10	Y10	Z10	X11	Y11	Z11	X12	Y12	Z12	X13	Y13	Z13	X14	Y14	Z14	X15	Y15	Z15	X16	Y16	Z16	X17	Y17	Z17	X18	Y18	Z18	X19	Y19	Z19	X20	Y20	Z20	X21	Y21	Z21	X22	Y22	Z22	X23	Y23	Z23	X24	Y24	Z24

123	0.488	-0.24259909	0.078870605	-0.022886718	-0.63528107	0.038169089	0.092484412	-0.39417738	0.099516492	-0.0471741	-0.7844049	0.059231961	0.11374351	-0.36381816	0.12142776	0.044238683	-0.76469831	0.094835772	0.022781902	-0.45539182	0.056028796	0.0083517638	-0.84910525	0.039816048	0.058536161	-0.37664199	0.51766656	-0.093401018	-0.64609439	0.49448625	0.18337262	-0.37093987	0.51435876	0.032691849	-0.65256581	0.48717249	0.054935687	-0.56541861	0.89211776	-0.1317094	-0.61055987	0.90011041	0.24062679	-0.49761522	0.97693267	-0.065201285	-0.50033219	0.97937139	0.17496057	-0.66468657	1.0352658	0.047781621	-0.49916873	1.4271225	-0.11707522	-0.51754568	1.4376879	0.21290149	-0.57308664	1.48582	0.046433787	-0.66780847	1.1012287	-0.15276209	-0.63817552	1.0772548	0.29561782	-0.58509065	0.85488311	-0.19520145	-0.39181919	0.94594803	0.25630698
124	0.492	-0.22353012	0.080377531	-0.021519677	-0.63525282	0.038127418	0.092545386	-0.3756247	0.09798287	-0.046305249	-0.78412554	0.059768879	0.1134139	-0.34600191	0.12098846	0.0452365	-0.7642899	0.095094168	0.022447347	-0.43594097	0.053478283	0.0094958238	-0.84897773	0.040181266	0.05787256	-0.368907	0.51588829	-0.093000532	-0.64428379	0.49441892	0.18331068	-0.36365314	0.51355154	0.032624871	-0.65084459	0.48709574	0.054960033	-0.55899572	0.89086085	-0.13175787	-0.60483369	0.89942901	0.24051021	-0.49112772	0.97575138	-0.065193408	-0.49421071	0.97824428	0.174999	-0.65810593	1.0340496	0.047990709	-0.49320863	1.4261996	-0.11709241	-0.51152496	1.4365925	0.21291158	-0.56706747	1.4847384	0.046498688	-0.66261152	1.1009252	-0.1529524	-0.63128428	1.0757205	0.29565349	-0.58190126	0.8540721	-0.19563076	-0.38391665	0.94638044	0.25569764
125	0.496	-0.20461977	0.08202645	-0.020024005	-0.63519799	0.038084809	0.092641627	-0.35716775	0.096644401	-0.04544507	-0.7838921	0.060222074	0.11295287	-0.32831611	0.12075601	0.046129834	-0.76381786	0.095403753	0.022066199	-0.41680592	0.051324357	0.010792018	-0.84881474	0.040573318	0.057060834	-0.36115776	0.5137779	-0.092528827	-0.64237181	0.4943621	0.18326266	-0.35645353	0.51262121	0.032640269	-0.64907962	0.48695854	0.054985845	-0.55257742	0.88951301	-0.13176528	-0.59926937	0.89885358	0.2404817	-0.48461199	0.97448975	-0.06517594	-0.48813788	0.97702598	0.17504459	-0.65139979	1.0327664	0.048258676	-0.48723224	1.4252114	-0.11711847	-0.50547945	1.4354088	0.21291393	-0.56104306	1.4835872	0.046551773	-0.65722275	1.1005412	-0.15320215	-0.6243849	1.0741204	0.29566049	-0.57862819	0.8532186	-0.1960706	-0.37604607	0.94670247	0.25509112
126	0.5	-0.18591648	0.083803066	-0.018454667	-0.6351122	0.038058735	0.092763069	-0.33889282	0.09551263	-0.044624557	-0.78376977	0.060556088	0.11236076	-0.3107589	0.12071904	0.046875822	-0.76327186	0.095745663	0.021621283	-0.39801118	0.049569958	0.012199849	-0.84860654	0.040995121	0.056111618	-0.35385439	0.51172938	-0.092291455	-0.64038099	0.49429933	0.18323754	-0.34943588	0.51154385	0.032706649	-0.64722655	0.48675441	0.054977242	-0.54616145	0.88808136	-0.13175241	-0.59382813	0.89832635	0.24052966	-0.47807447	0.97316485	-0.065153939	-0.48201566	0.97575007	0.17510929	-0.64472506	1.031469	0.048372319	-0.48123352	1.424156	-0.11715527	-0.49941199	1.4341432	0.21290975	-0.55501744	1.4823926	0.046609475	-0.65166991	1.1000768	-0.15349986	-0.61746927	1.0724503	0.29563365	-0.57527899	0.85231944	-0.19652218	-0.36821039	0.94691796	0.25449495
127	0.504	-0.16746594	0.085703474	-0.016883303	-0.63500984	0.038054304	0.092862827	-0.32087745	0.094603892	-0.043876067	-0.78372228	0.060851752	0.1116883	-0.29334988	0.12085237	0.047487605	-0.76266803	0.096085343	0.021107373	-0.37935553	0.048020818	0.013392429	-0.84835584	0.041449972	0.055079398	-0.34702876	0.50994022	-0.092336962	-0.63834541	0.49420033	0.18324363	-0.34262976	0.5102986	0.032799468	-0.64522013	0.48650061	0.054905398	-0.5397556	0.88657204	-0.13174153	-0.58842948	0.89768565	0.24067498	-0.47152672	0.97178995	-0.065128528	-0.47576268	0.97444471	0.17519357	-0.63819247	1.0301698	0.048192163	-0.47521456	1.4230294	-0.1172081	-0.49332519	1.4328124	0.21289802	-0.54899405	1.4811765	0.046681019	-0.64613825	1.0995339	-0.15378605	-0.61054013	1.0707143	0.29557836	-0.57185171	0.85137276	-0.19698198	-0.36041379	0.94703529	0.25391639
128	0.508	-0.14930342	0.087739309	-0.015359966	-0.63491863	0.038065868	0.092893935	-0.30315953	0.093911462	-0.043223923	-0.7836939	0.06118529	0.11098994	-0.27615196	0.12110051	0.048001885	-0.76204178	0.096396502	0.020540378	-0.36057764	0.046404616	0.014016812	-0.84807883	0.041944352	0.054028313	-0.34042053	0.50832528	-0.092503229	-0.63627273	0.49404115	0.18327732	-0.33596407	0.50886359	0.032930934	-0.64303088	0.48620928	0.054775037	-0.53336163	0.88498952	-0.13173934	-0.58300694	0.89670085	0.24101725	-0.46497323	0.97036605	-0.06510126	-0.46937323	0.97312023	0.17528486	-0.63182142	1.0288311	0.047660088	-0.46918381	1.4218328	-0.11727518	-0.48721001	1.4314258	0.21288386	-0.54296216	1.4799263	0.046753822	-0.64076417	1.0989135	-0.15401619	-0.60360725	1.068924	0.29550428	-0.5683307	0.85038508	-0.19744807	-0.35265937	0.9470543	0.25335278
129	0.512	-0.13146199	0.089932402	-0.013902274	-0.63485156	0.038089909	0.092865603	-0.28573832	0.093397723	-0.042676023	-0.78366632	0.061572136	0.11030167	-0.25925861	0.12143268	0.048433808	-0.76141619	0.096683628	0.019966995	-0.34172841	0.044699853	0.014116058	-0.84779905	0.042489827	0.05300488	-0.33382443	0.50673878	-0.092648657	-0.63411516	0.49382927	0.18332164	-0.32933374	0.50723042	0.033119903	-0.6406795	0.48589568	0.054622081	-0.5269718	0.88333934	-0.13173879	-0.57751434	0.89521774	0.24162681	-0.45841177	0.96888881	-0.065078312	-0.46289457	0.97177053	0.17537369	-0.62565827	1.0274287	0.0466272	-0.4631439	1.4205723	-0.11734765	-0.48106051	1.4299842	0.21287333	-0.53690155	1.4786044	0.046810805	-0.6355311	1.0982249	-0.15418116	-0.5966788	1.0670894	0.2954157	-0.56470018	0.84936906	-0.19792778	-0.34494645	0.9469704	0.25280224
130	0.516	-0.11398712	0.09230298	-0.012509254	-0.63479673	0.038125622	0.092833103	-0.26860658	0.093020258	-0.04222504	-0.78364237	0.062002047	0.10965347	-0.24274519	0.12186629	0.048782581	-0.76078916	0.096976864	0.019443282	-0.32314713	0.043132616	0.014056212	-0.8475378	0.043100553	0.052040845	-0.327187	0.50510432	-0.092710861	-0.6317984	0.49359365	0.18336154	-0.32265981	0.5054391	0.03337282	-0.63819008	0.48558753	0.054478513	-0.5205717	0.88162701	-0.13174554	-0.57188985	0.89336573	0.24232728	-0.45183587	0.96736036	-0.065063434	-0.45637872	0.97038308	0.1754593	-0.61982137	1.0259805	0.044923694	-0.45708884	1.419251	-0.11742057	-0.47489266	1.4284911	0.21286526	-0.53081176	1.4771959	0.046856798	-0.63035526	1.0974807	-0.15428616	-0.58975496	1.0652112	0.29530796	-0.5609543	0.84832811	-0.19842443	-0.33727565	0.94678382	0.25226668
131	0.52	-0.096928403	0.094863315	-0.011171872	-0.63474286	0.038159627	0.092829283	-0.2517774	0.092761743	-0.041866553	-0.78360886	0.062471742	0.10907896	-0.22664519	0.12241061	0.049060441	-0.7601599	0.097305034	0.018997546	-0.30507613	0.041853047	0.01406886	-0.84730573	0.043776514	0.051163182	-0.32054547	0.5033988	-0.09267623	-0.62927974	0.49334542	0.18339063	-0.31591756	0.50356639	0.033684084	-0.63557	0.48529313	0.054355853	-0.51413842	0.87985861	-0.13178089	-0.56607927	0.89150678	0.24276198	-0.44523386	0.96579115	-0.065056294	-0.44985502	0.96895052	0.17554266	-0.61423713	1.0244679	0.042791305	-0.45101211	1.4178684	-0.11749929	-0.4687262	1.42695	0.21285374	-0.52472196	1.4757219	0.046916348	-0.62514903	1.0966762	-0.15437066	-0.58282933	1.0632856	0.29517398	-0.55709765	0.84724321	-0.19892487	-0.32965205	0.94649773	0.25174406
132	0.524	-0.080316158	0.097621594	-0.0098725624	-0.63469632	0.038162806	0.092840816	-0.23528038	0.092630219	-0.041606031	-0.78354582	0.062981315	0.1086004	-0.21097125	0.12303284	0.049294036	-0.75954686	0.097675712	0.018632215	-0.28752574	0.040817735	0.014103726	-0.84710089	0.044497255	0.050393035	-0.31395587	0.50161234	-0.092557791	-0.62656925	0.49306235	0.18340228	-0.30913045	0.50167407	0.034038013	-0.63281236	0.48498638	0.054252513	-0.50764849	0.87803862	-0.13185048	-0.5600988	0.88989017	0.24275183	-0.43859473	0.96419304	-0.0650596	-0.44333622	0.96747113	0.17562251	-0.60851304	1.0228083	0.040923716	-0.44491381	1.4164264	-0.1175934	-0.4625558	1.4253596	0.21283286	-0.51865384	1.4742023	0.046996372	-0.61980989	1.0957853	-0.15454067	-0.57589488	1.0613113	0.29501067	-0.55314435	0.84608593	-0.19941598	-0.32207911	0.94611279	0.25123243
133	0.528	-0.06417227	0.10058371	-0.0085967283	-0.63466705	0.038116032	0.092844163	-0.21914355	0.092639574	-0.041444588	-0.78345739	0.063521147	0.10821406	-0.19573882	0.12368337	0.0495166	-0.75896622	0.098077061	0.018340902	-0.27043124	0.039916437	0.014021783	-0.84691672	0.04524652	0.049744188	-0.30743387	0.49974073	-0.092373324	-0.62369752	0.4927116	0.18339042	-0.30233875	0.49978671	0.034422015	-0.62988321	0.4846404	0.054159585	-0.50108385	0.87616844	-0.13194487	-0.55401572	0.88849132	0.2424013	-0.43191524	0.96257394	-0.065079502	-0.4368333	0.96594657	0.17569503	-0.6023346	1.0209732	0.039825349	-0.43880305	1.4149277	-0.11770783	-0.45635816	1.4237192	0.21279859	-0.51256874	1.4726328	0.047045715	-0.61426024	1.0947846	-0.15490141	-0.56895008	1.0592928	0.29481936	-0.54911517	0.84484836	-0.19990726	-0.3145513	0.94562448	0.25073193
134	0.532	-0.048539361	0.10374163	-0.0073518989	-0.63465318	0.038032578	0.092834481	-0.20338633	0.092782994	-0.041368201	-0.78336418	0.064068346	0.10789739	-0.18097618	0.12432288	0.049766347	-0.75841177	0.098492638	0.018111265	-0.253768	0.039071063	0.013731283	-0.84675043	0.04603001	0.049223597	-0.30090046	0.49779862	-0.092129386	-0.62066625	0.49227806	0.18336077	-0.2955854	0.49790186	0.034838336	-0.62671081	0.48424966	0.054071457	-0.4944386	0.87425165	-0.13205771	-0.54788983	0.88716948	0.24189611	-0.42519515	0.9609364	-0.065121287	-0.43035441	0.96438067	0.17575284	-0.59575616	1.0190366	0.039439579	-0.43268978	1.4133732	-0.1178418	-0.45011606	1.4220311	0.21275179	-0.50638351	1.4710055	0.046982964	-0.60854688	1.0936837	-0.15542137	-0.56200075	1.0572397	0.29460542	-0.54502952	0.84354731	-0.2004241	-0.30706016	0.94502883	0.2502404
135	0.536	-0.033471963	0.10705768	-0.0061577875	-0.63464372	0.037945883	0.092822626	-0.18802519	0.093031804	-0.041363834	-0.7832731	0.064606217	0.10763726	-0.16673048	0.12492172	0.050066591	-0.75786668	0.098913854	0.017933522	-0.23755417	0.038248486	0.013195115	-0.84660188	0.046860252	0.048828894	-0.29422265	0.49581986	-0.09181651	-0.61743107	0.4917703	0.18332928	-0.28891219	0.49600321	0.035297512	-0.62322994	0.48380995	0.053992025	-0.48772245	0.87229572	-0.13217973	-0.54175607	0.88581809	0.24136018	-0.41843036	0.95927837	-0.065188295	-0.42389865	0.96277306	0.17578803	-0.58900454	1.0170707	0.03943084	-0.42657022	1.4117641	-0.11798906	-0.44383117	1.4203009	0.21269554	-0.5000781	1.4693297	0.046799216	-0.60282032	1.0925187	-0.15594472	-0.55505757	1.0551608	0.29437459	-0.54090177	0.84219973	-0.20098585	-0.29960847	0.94432962	0.24975764
136	0.54	-0.019003146	0.11045948	-0.0050236391	-0.63462931	0.037878228	0.092819196	-0.17307756	0.093373441	-0.041441141	-0.78316928	0.065147501	0.10744675	-0.15305416	0.12544851	0.050384045	-0.75732507	0.099342536	0.0178081	-0.22182122	0.03744307	0.012417287	-0.8464687	0.047741456	0.048551502	-0.28736232	0.49383932	-0.091422015	-0.61393715	0.49119775	0.1833073	-0.28234637	0.49407245	0.035808466	-0.61947431	0.48329785	0.053920954	-0.48093292	0.87030656	-0.1323082	-0.5356262	0.88438941	0.24083966	-0.41161302	0.95759512	-0.065284587	-0.41746188	0.96111554	0.17579902	-0.58223818	1.0150775	0.039519961	-0.42042905	1.4101035	-0.11814108	-0.43752199	1.418536	0.2126298	-0.49374156	1.467621	0.046588843	-0.59717655	1.0913156	-0.15636648	-0.54813205	1.0530567	0.29412062	-0.53674618	0.84080604	-0.20160196	-0.29220822	0.94353389	0.24928868
